Format                                   : MPEG-4
Format profile                           : Base Media / Version 2
Codec ID                                 : mp42
File size                                : 1.37 GiB
Duration                                 : 1h 33mn
Overall bit rate mode                    : Variable
Overall bit rate                         : 2 088 Kbps

Video
ID                                       : 1
Format                                   : AVC
Format/Info                              : Advanced Video Codec
Format profile                           : High@L3.1
Format settings, CABAC                   : Yes
Format settings, ReFrames                : 4 frames
Codec ID                                 : avc1
Codec ID/Info                            : Advanced Video Coding
Duration                                 : 1h 33mn
Bit rate mode                            : Variable
Bit rate                                 : 1 770 Kbps
Maximum bit rate                         : 11.0 Mbps
Width                                    : 1 280 pixels
Height                                   : 532 pixels
Display aspect ratio                     : 2.40:1
Frame rate mode                          : Constant
Frame rate                               : 25.000 fps
Color space                              : YUV
Chroma subsampling                       : 4:2:0
Bit depth                                : 8 bits
Scan type                                : Progressive
Bits/(Pixel*Frame)                       : 0.104
Stream size                              : 1.16 GiB (85%)
Language                                 : English

Audio
ID                                       : 2
Format                                   : AAC
Format/Info                              : Advanced Audio Codec
Format profile                           : LC
Codec ID                                 : 40
Duration                                 : 1h 33mn
Bit rate mode                            : Variable
Bit rate                                 : 314 Kbps
Maximum bit rate                         : 353 Kbps
Channel(s)                               : 6 channels
Channel positions                        : Front: L C R, Side: L R, LFE
Sampling rate                            : 48.0 KHz
Compression mode                         : Lossy
Delay relative to video                  : 40ms
Stream size                              : 210 MiB (15%)
Title                                    : eng
Language                                 : English
Subtitles                                : None

IMDB.  http://www.imdb.com/title/tt0372588/

Storyline.
The North American anti-terrorist force Team America attacks a group of terrorist in Paris. Later, the leader of the organization, Spottswoode, invites the famous Broadway actor Gary Johnston to join his world police and work undercover in Cairo in a terrorist organization and disclose their plan of destroying the world. The Team America destroy the cell of terrorists, but then the Panama Canal is attacked by the criminals as a payback. Gary feels responsible for the death of many innocents and leaves the counter-terrorism organization. When the leader of North Korea, Kim Jong II, joins a group of pacifist actors and actresses with the intention of using weapons of massive destruction, the Team America tries to avoid the destruction of the world.

Screens.  http://bayimg.com/LAnFLaaEa

          http://bayimg.com/LaNfNAaEa

          http://bayimg.com/laNFOAAeA

          http://bayimg.com/maNFaAAEA

Enjoy.